HIERARCHY
ROOT Hips
{
	OFFSET 0.00 0.00 0.00
	CHANNELS 6 Xposition Yposition Zposition Yrotation Xrotation Zrotation
	JOINT Spine
	{
		OFFSET	0.0000	9.2263	1.5771
		CHANNELS 3 Xrotation Yrotation Zrotation
		JOINT Spine1
		{
			OFFSET	0.0000	16.2540	-0.1656
			CHANNELS 3 Xrotation Yrotation Zrotation
			JOINT Spine2
			{
				OFFSET	0.0000	13.6396	-1.2923
				CHANNELS 3 Xrotation Yrotation Zrotation
				JOINT Neck
				{
					OFFSET	0.0000	13.8774	-4.3542
					CHANNELS 3 Xrotation Yrotation Zrotation
					JOINT Neck1
					{
						OFFSET	0.0000	4.3400	0.9269
						CHANNELS 3 Xrotation Yrotation Zrotation
						JOINT Head
						{
							OFFSET	0.0000	4.0266	0.8585
							CHANNELS 3 Xrotation Yrotation Zrotation
							End Site
							{
								OFFSET 0.0000 23.0297 0.1231
							}
						}
					}
				}
				JOINT LeftShoulder
				{
					OFFSET	6.1442	10.1870	-3.7932
					CHANNELS 3 Zrotation Xrotation Yrotation
					JOINT LeftArm
					{
						OFFSET	12.3191	-1.1130	-1.7935
						CHANNELS 3 Zrotation Xrotation Yrotation
						JOINT LeftForeArm
						{
							OFFSET	27.6870	0.0000	0.0000
							CHANNELS 3 Xrotation Zrotation Yrotation
							JOINT LeftHand
							{
								OFFSET	27.8738	0.0000	0.0000
								CHANNELS 3 Zrotation Yrotation Xrotation
								JOINT LeftHandThumb1
								{
									OFFSET	2.3785	-1.0029	2.6209
									CHANNELS 3 Zrotation Xrotation Yrotation
									JOINT LeftHandThumb2
									{
										OFFSET	3.3624	-1.0029	2.8398
										CHANNELS 3 Zrotation Xrotation Yrotation
										JOINT LeftHandThumb3
										{
											OFFSET	4.5018	-1.3445	2.1783
											CHANNELS 3 Zrotation Xrotation Yrotation
											End Site
											{
												OFFSET 2.6000 -1.0000 1.0000
											}
										}
									}
								}
								JOINT LeftHandMiddle1
								{
									OFFSET	10.4639	0.6148	0.4298
									CHANNELS 3 Zrotation Xrotation Yrotation
									JOINT LeftHandMiddle2
									{
										OFFSET	5.7921	0.0000	0.0000
										CHANNELS 3 Zrotation Xrotation Yrotation
										JOINT LeftHandMiddle3
										{
											OFFSET	3.7132	0.0000	0.0000
											CHANNELS 3 Zrotation Xrotation Yrotation
											End Site
											{
												OFFSET 2.3000 0.0000 0.0000
											}
										}
									}
								}
								JOINT LeftHandIndex1
								{
									OFFSET	10.3945	0.6148	2.7055
									CHANNELS 3 Zrotation Xrotation Yrotation
									JOINT LeftHandIndex2
									{
										OFFSET	5.5493	0.0000	0.0000
										CHANNELS 3 Zrotation Xrotation Yrotation
										JOINT LeftHandIndex3
										{
											OFFSET	3.3911	0.0000	0.0000
											CHANNELS 3 Zrotation Xrotation Yrotation
											End Site
											{
												OFFSET 2.5000 0.0000 0.0000
											}
										}
									}
								}
								JOINT LeftHandRing1
								{
									OFFSET	10.3252	0.3211	-1.8755
									CHANNELS 3 Zrotation Xrotation Yrotation
									JOINT LeftHandRing2
									{
										OFFSET	5.4452	0.0000	0.0000
										CHANNELS 3 Zrotation Xrotation Yrotation
										JOINT LeftHandRing3
										{
											OFFSET	3.7132	0.0000	0.0000
											CHANNELS 3 Zrotation Xrotation Yrotation
											End Site
											{
												OFFSET 2.0000 0.0000 0.0000
											}
										}
									}
								}
								JOINT LeftHandPinky1
								{
									OFFSET	10.0130	-0.0783	-3.9671
									CHANNELS 3 Zrotation Xrotation Yrotation
									JOINT LeftHandPinky2
									{
										OFFSET	3.6763	0.0000	0.0000
										CHANNELS 3 Zrotation Xrotation Yrotation
										JOINT LeftHandPinky3
										{
											OFFSET	2.8113	0.0000	0.0000
											CHANNELS 3 Zrotation Xrotation Yrotation
											End Site
											{
												OFFSET 2.9000 0.0000 0.0000
											}
										}
									}
								}
							}
						}
					}
				}
				JOINT RightShoulder
				{
					OFFSET	-6.1402	10.1870	-3.7932
					CHANNELS 3 Zrotation Xrotation Yrotation
					JOINT RightArm
					{
						OFFSET	-12.3231	-1.1130	-1.7935
						CHANNELS 3 Zrotation Xrotation Yrotation
						JOINT RightForeArm
						{
							OFFSET	-27.6870	0.0000	0.0000
							CHANNELS 3 Xrotation Zrotation Yrotation
							JOINT RightHand
							{
								OFFSET	-27.8738	0.0000	0.0000
								CHANNELS 3 Zrotation Yrotation Xrotation
								JOINT RightHandThumb1
								{
									OFFSET	-2.5178	-0.9367	2.5137
									CHANNELS 3 Zrotation Xrotation Yrotation
									JOINT RightHandThumb2
									{
										OFFSET	-3.2638	-1.0870	2.9669
										CHANNELS 3 Zrotation Xrotation Yrotation
										JOINT RightHandThumb3
										{
											OFFSET	-4.4165	-1.3703	2.1350
											CHANNELS 3 Zrotation Xrotation Yrotation
											End Site
											{
												OFFSET -2.6000 -1.0000 1.0000
											}
										}
									}
								}
								JOINT RightHandIndex1
								{
									OFFSET	-10.4665	0.4896	2.7120
									CHANNELS 3 Zrotation Xrotation Yrotation
									JOINT RightHandIndex2
									{
										OFFSET	-5.3768	0.0000	0.0000
										CHANNELS 3 Zrotation Xrotation Yrotation
										JOINT RightHandIndex3
										{
											OFFSET	-3.3855	0.0000	0.0000
											CHANNELS 3 Zrotation Xrotation Yrotation
											End Site
											{
												OFFSET -2.6000 0.0000 0.0000
											}
										}
									}
								}
								JOINT RightHandMiddle1
								{
									OFFSET	-10.7596	0.4896	0.4278
									CHANNELS 3 Zrotation Xrotation Yrotation
									JOINT RightHandMiddle2
									{
										OFFSET	-5.6168	0.0000	0.0000
										CHANNELS 3 Zrotation Xrotation Yrotation
										JOINT RightHandMiddle3
										{
											OFFSET	-3.7364	0.0000	0.0000
											CHANNELS 3 Zrotation Xrotation Yrotation
											End Site
											{
												OFFSET -2.3000 0.0000 0.0000
											}
										}
									}
								}
								JOINT RightHandRing1
								{
									OFFSET	-10.4702	0.3879	-1.9363
									CHANNELS 3 Zrotation Xrotation Yrotation
									JOINT RightHandRing2
									{
										OFFSET	-5.4013	0.0000	0.0000
										CHANNELS 3 Zrotation Xrotation Yrotation
										JOINT RightHandRing3
										{
											OFFSET	-3.3916	0.0000	0.0000
											CHANNELS 3 Zrotation Xrotation Yrotation
											End Site
											{
												OFFSET -2.2000 0.0000 0.0000
											}
										}
									}
								}
								JOINT RightHandPinky1
								{
									OFFSET	-9.9715	-0.1191	-3.9540
									CHANNELS 3 Zrotation Xrotation Yrotation
									JOINT RightHandPinky2
									{
										OFFSET	-3.6528	0.0000	0.0000
										CHANNELS 3 Zrotation Xrotation Yrotation
										JOINT RightHandPinky3
										{
											OFFSET	-2.7820	0.0000	0.0000
											CHANNELS 3 Zrotation Xrotation Yrotation
											End Site
											{
												OFFSET -2.9000 0.0000 0.0000
											}
										}
									}
								}
							}
						}
					}
				}
			}
		}
	}
	JOINT LeftUpLeg
	{
		OFFSET	9.6338	-3.2733	0.0000
		CHANNELS 3 Xrotation Yrotation Zrotation
		JOINT LeftLeg
		{
			OFFSET	0.0000	-41.7300	-1.7300
			CHANNELS 3 Xrotation Yrotation Zrotation
			JOINT LeftFoot
			{
				OFFSET	0.0126	-39.1900	-0.8477
				CHANNELS 3 Xrotation Yrotation Zrotation
				JOINT LeftToeBase
				{
					OFFSET	-0.1833	-12.1931	8.2823
					CHANNELS 3 Xrotation Yrotation Zrotation
					End Site
					{
						OFFSET 0.0000 0.0000 10.1681
					}
				}
			}
		}
	}
	JOINT RightUpLeg
	{
		OFFSET	-9.6338	-3.2733	0.0000
		CHANNELS 3 Xrotation Yrotation Zrotation
		JOINT RightLeg
		{
			OFFSET	0.0000	-41.7300	-1.7300
			CHANNELS 3 Xrotation Yrotation Zrotation
			JOINT RightFoot
			{
				OFFSET	0.0126	-39.1900	-0.8477
				CHANNELS 3 Xrotation Yrotation Zrotation
				JOINT RightToeBase
				{
					OFFSET	-0.1833	-12.1931	8.2823
					CHANNELS 3 Xrotation Yrotation Zrotation
					End Site
					{
						OFFSET 0.0032 0.0000 10.1681
					}
				}
			}
		}
	}
}
MOTION
Frames: 7
Frame Time: 0.0333333
-0.0184 96.2922 -0.4611 -4.4667 6.3326 -0.6739 -0.1161 0.6069 0.5244 -0.2374 1.2096 1.0211 -0.2374 1.2096 1.0211 -5.4535 -0.0006 -0.0036 -0.0000 0.0000 -0.0000 2.7931 2.4578 -2.0414 -7.3146 -1.0405 -0.0669 -70.4624 32.5488 -3.2376 0.1836 -0.0155 -21.5071 -0.3429 14.4243 -14.7024 2.2936 1.8064 13.3756 0.5045 -2.4802 -6.3884 3.6508 -3.2616 -4.2510 -19.2030 1.0010 -4.7914 -20.7272 0.5049 -3.3043 0.0000 0.0000 0.0000 -14.7130 1.1690 -4.6771 -26.4247 0.3367 -1.7417 -0.0000 -0.0000 -0.0000 -27.5692 -1.4058 -4.4696 -27.2735 1.4592 -5.4585 -0.0000 -0.0000 0.0000 -23.0139 -2.9566 -2.7469 -37.1873 4.3971 -10.0866 -0.0000 -0.0000 0.0000 9.2766 -1.1740 0.9445 64.8210 33.0015 2.3254 0.1658 0.0169 22.0557 -0.1366 -9.6682 2.7570 -3.8024 1.4125 -12.9615 -0.2605 -3.0360 8.1612 -3.1411 -3.0303 4.2392 13.9138 -0.4046 1.9747 24.6721 0.0607 0.5844 -0.0000 0.0000 0.0000 24.1337 -0.1125 3.2317 24.6526 0.5377 2.9944 -0.0000 -0.0000 0.0000 32.2455 0.0360 3.3671 31.0118 1.8288 6.0786 0.0000 -0.0000 0.0000 33.0303 -1.0910 0.6399 45.0276 6.5054 12.6682 -0.0000 0.0000 0.0000 -14.9796 10.7142 2.6646 12.1204 -0.0150 -0.2970 -3.7436 6.1023 -0.0794 0.0030 -0.0262 0.0626 -12.6561 0.4645 1.2480 9.1062 0.0151 0.2298 -2.7520 2.8310 -0.7507 -0.0122 -0.1097 0.2621 
-0.0045 96.2913 -0.4515 -4.5283 6.3675 -0.6956 -0.1266 0.6067 0.5188 -0.2582 1.2090 1.0094 -0.2582 1.2090 1.0094 -5.4044 -0.0035 0.0152 -0.0000 0.0000 -0.0000 2.8505 2.4547 -2.0232 -7.2309 -1.0235 -0.0711 -70.4757 32.5289 -3.2471 0.1849 -0.0153 -21.4193 -0.4661 14.3403 -14.9216 2.2936 1.8064 13.3756 0.5045 -2.4802 -6.3884 3.6508 -3.2616 -4.2510 -19.2030 1.0010 -4.7914 -20.7272 0.5049 -3.3043 0.0000 -0.0000 -0.0000 -14.7130 1.1690 -4.6771 -26.4247 0.3367 -1.7417 0.0000 0.0000 0.0000 -27.5692 -1.4058 -4.4696 -27.2735 1.4592 -5.4585 -0.0000 -0.0000 -0.0000 -23.0139 -2.9567 -2.7469 -37.1873 4.3971 -10.0866 0.0000 0.0000 0.0000 9.2809 -1.1517 0.9853 64.8544 32.9795 2.3324 0.1673 0.0169 22.0479 -0.1324 -9.7241 2.8274 -3.8023 1.4125 -12.9615 -0.2606 -3.0360 8.1612 -3.1411 -3.0303 4.2393 13.9138 -0.4046 1.9747 24.6721 0.0607 0.5844 0.0000 -0.0000 -0.0000 24.1337 -0.1125 3.2318 24.6526 0.5377 2.9944 0.0000 -0.0000 0.0000 32.2455 0.0360 3.3671 31.0117 1.8288 6.0786 0.0000 -0.0000 0.0000 33.0303 -1.0910 0.6399 45.0276 6.5054 12.6682 -0.0000 0.0000 -0.0000 -15.0407 10.6935 2.6830 12.1949 -0.0152 -0.3000 -3.7964 6.1780 -0.0714 0.0029 -0.0258 0.0616 -12.6676 0.4516 1.2593 9.0547 0.0150 0.2277 -2.7221 2.9018 -0.7400 -0.0122 -0.1097 0.2621 
0.0079 96.2878 -0.4273 -4.6292 6.3863 -0.7258 -0.1477 0.6021 0.5107 -0.3002 1.1995 0.9926 -0.3002 1.1995 0.9926 -5.2698 -0.0142 0.0529 -0.0000 0.0000 -0.0000 2.9168 2.4048 -1.9387 -7.1207 -1.0103 -0.0688 -70.5385 32.5497 -3.2136 0.1872 -0.0149 -21.2468 -0.6681 14.1755 -15.2158 2.2936 1.8064 13.3756 0.5045 -2.4802 -6.3884 3.6508 -3.2616 -4.2510 -19.2030 1.0010 -4.7914 -20.7272 0.5049 -3.3043 0.0000 -0.0000 -0.0000 -14.7130 1.1690 -4.6771 -26.4246 0.3367 -1.7417 -0.0000 0.0000 -0.0000 -27.5692 -1.4058 -4.4696 -27.2735 1.4592 -5.4585 -0.0000 0.0000 -0.0000 -23.0139 -2.9567 -2.7469 -37.1873 4.3971 -10.0866 -0.0000 -0.0000 0.0000 9.2671 -1.0843 1.1217 64.9078 32.8738 1.8931 0.1686 0.0194 22.9081 -0.0960 -10.3280 2.9183 -3.8024 1.4125 -12.9615 -0.2605 -3.0360 8.1612 -3.1411 -3.0303 4.2392 13.9138 -0.4046 1.9747 24.6721 0.0607 0.5844 0.0000 0.0000 -0.0000 24.1336 -0.1125 3.2318 24.6526 0.5377 2.9944 -0.0000 -0.0000 -0.0000 32.2455 0.0360 3.3671 31.0117 1.8287 6.0786 0.0000 0.0000 -0.0000 33.0303 -1.0910 0.6399 45.0276 6.5054 12.6682 0.0000 0.0000 0.0000 -15.1033 10.6394 2.7137 12.3366 -0.0155 -0.3058 -3.8990 6.3229 -0.0661 0.0029 -0.0253 0.0605 -12.6602 0.4003 1.2753 9.0132 0.0149 0.2259 -2.7051 3.0489 -0.7300 -0.0122 -0.1097 0.2621 
0.0194 96.2818 -0.3915 -4.7584 6.3829 -0.7634 -0.1664 0.6104 0.5039 -0.3377 1.2160 0.9781 -0.3377 1.2160 0.9781 -5.0991 -0.0330 0.0519 -0.0000 0.0000 -0.0000 2.9964 2.2219 -1.7221 -7.0806 -0.9973 -0.0845 -70.5184 32.5728 -3.1671 0.1876 -0.0146 -21.1287 -0.9411 13.9842 -15.4746 2.2936 1.8064 13.3756 0.5045 -2.4802 -6.3884 3.6508 -3.2616 -4.2510 -19.2030 1.0010 -4.7914 -20.7272 0.5049 -3.3043 0.0000 0.0000 0.0000 -14.7130 1.1690 -4.6771 -26.4247 0.3367 -1.7417 -0.0000 0.0000 -0.0000 -27.5692 -1.4058 -4.4696 -27.2735 1.4592 -5.4585 -0.0000 0.0000 -0.0000 -23.0139 -2.9567 -2.7469 -37.1873 4.3971 -10.0866 -0.0000 0.0000 0.0000 9.1873 -1.0030 1.2741 65.0044 32.7590 1.5410 0.1692 0.0213 23.5746 -0.0967 -10.8536 2.9422 -3.8024 1.4125 -12.9615 -0.2605 -3.0360 8.1612 -3.1411 -3.0303 4.2393 13.9138 -0.4046 1.9747 24.6721 0.0607 0.5844 0.0000 0.0000 0.0000 24.1337 -0.1125 3.2318 24.6526 0.5377 2.9944 -0.0000 0.0000 -0.0000 32.2455 0.0360 3.3671 31.0118 1.8287 6.0786 -0.0000 0.0000 -0.0000 33.0303 -1.0910 0.6399 45.0276 6.5054 12.6682 0.0000 0.0000 -0.0000 -15.1606 10.5563 2.7546 12.5379 -0.0160 -0.3139 -4.0445 6.5220 -0.0626 0.0029 -0.0253 0.0605 -12.6373 0.3163 1.2949 8.9993 0.0149 0.2249 -2.7079 3.2556 -0.7206 -0.0122 -0.1097 0.2621 
0.0303 96.2735 -0.3451 -4.9122 6.3590 -0.8062 -0.1780 0.6407 0.5013 -0.3611 1.2763 0.9718 -0.3611 1.2763 0.9718 -4.9171 -0.0612 -0.0200 -0.0000 0.0000 -0.0000 3.0830 1.8678 -1.3619 -7.1478 -0.9834 -0.1145 -70.3941 32.5875 -3.0838 0.1852 -0.0146 -21.1358 -1.2002 13.7474 -15.5364 2.2936 1.8064 13.3756 0.5045 -2.4802 -6.3884 3.6508 -3.2616 -4.2510 -19.2030 1.0010 -4.7914 -20.7272 0.5049 -3.3043 -0.0000 0.0000 -0.0000 -14.7129 1.1690 -4.6771 -26.4247 0.3367 -1.7417 -0.0000 0.0000 -0.0000 -27.5692 -1.4058 -4.4696 -27.2735 1.4592 -5.4585 -0.0000 0.0000 0.0000 -23.0139 -2.9567 -2.7469 -37.1873 4.3971 -10.0866 0.0000 0.0000 0.0000 9.0178 -0.9250 1.3979 65.1411 32.6826 1.2603 0.1682 0.0225 24.0885 -0.1505 -11.2123 2.8756 -3.8024 1.4125 -12.9615 -0.2606 -3.0360 8.1612 -3.1411 -3.0303 4.2392 13.9138 -0.4046 1.9747 24.6721 0.0607 0.5844 0.0000 -0.0000 -0.0000 24.1336 -0.1125 3.2318 24.6526 0.5377 2.9944 0.0000 -0.0000 0.0000 32.2455 0.0360 3.3671 31.0117 1.8288 6.0786 -0.0000 0.0000 0.0000 33.0303 -1.0910 0.6399 45.0276 6.5054 12.6682 -0.0000 -0.0000 0.0000 -15.2074 10.4475 2.8019 12.7834 -0.0167 -0.3237 -4.2239 6.7695 -0.0605 0.0029 -0.0255 0.0608 -12.6023 0.2035 1.3162 9.0163 0.0149 0.2251 -2.7321 3.5151 -0.7118 -0.0122 -0.1097 0.2621 
0.0399 96.2631 -0.2865 -5.0978 6.3183 -0.8505 -0.1931 0.6743 0.4989 -0.3916 1.3434 0.9660 -0.3916 1.3434 0.9660 -4.6890 -0.0956 -0.1070 -0.0000 0.0000 -0.0000 3.1487 1.4517 -0.9994 -7.2534 -0.9742 -0.1528 -70.2902 32.5909 -2.8547 0.1826 -0.0148 -21.2320 -1.3918 13.4626 -15.4860 2.2936 1.8064 13.3756 0.5045 -2.4802 -6.3884 3.6508 -3.2616 -4.2510 -19.2030 1.0010 -4.7914 -20.7272 0.5049 -3.3043 0.0000 -0.0000 -0.0000 -14.7130 1.1690 -4.6771 -26.4247 0.3367 -1.7417 0.0000 0.0000 -0.0000 -27.5692 -1.4058 -4.4696 -27.2735 1.4592 -5.4585 -0.0000 0.0000 -0.0000 -23.0139 -2.9567 -2.7469 -37.1873 4.3971 -10.0866 0.0000 0.0000 -0.0000 8.8125 -0.8265 1.5606 65.2966 32.5879 1.0106 0.1668 0.0234 24.5095 -0.1961 -11.4559 2.8200 -3.8024 1.4125 -12.9616 -0.2605 -3.0360 8.1612 -3.1411 -3.0303 4.2393 13.9138 -0.4046 1.9747 24.6721 0.0607 0.5844 0.0000 0.0000 -0.0000 24.1337 -0.1125 3.2318 24.6526 0.5377 2.9944 -0.0000 -0.0000 -0.0000 32.2455 0.0360 3.3671 31.0117 1.8287 6.0786 0.0000 0.0000 -0.0000 33.0303 -1.0910 0.6399 45.0276 6.5054 12.6682 0.0000 -0.0000 0.0000 -15.2383 10.3148 2.8500 13.0599 -0.0175 -0.3347 -4.4322 7.0721 -0.0604 0.0029 -0.0253 0.0604 -12.5610 0.0641 1.3354 9.0686 0.0149 0.2264 -2.7797 3.8332 -0.7037 -0.0122 -0.1097 0.2621 
0.0479 96.2510 -0.2153 -5.3165 6.2615 -0.8927 -0.2187 0.6985 0.4945 -0.4427 1.3916 0.9565 -0.4427 1.3916 0.9565 -4.3974 -0.1306 -0.1782 -0.0000 0.0000 -0.0000 3.1856 1.0609 -0.7183 -7.3089 -0.9621 -0.1937 -70.2829 32.6031 -2.5625 0.1811 -0.0145 -21.2137 -1.6190 13.1201 -15.5963 2.2936 1.8064 13.3756 0.5045 -2.4802 -6.3884 3.6508 -3.2616 -4.2510 -19.2030 1.0010 -4.7914 -20.7272 0.5049 -3.3043 0.0000 -0.0000 0.0000 -14.7130 1.1690 -4.6771 -26.4247 0.3367 -1.7417 -0.0000 0.0000 -0.0000 -27.5692 -1.4058 -4.4696 -27.2735 1.4592 -5.4585 0.0000 0.0000 -0.0000 -23.0139 -2.9566 -2.7469 -37.1873 4.3971 -10.0866 -0.0000 0.0000 0.0000 8.6104 -0.6926 1.8041 65.4554 32.4330 0.7662 0.1659 0.0241 24.8867 -0.1916 -11.6628 2.8328 -3.8024 1.4125 -12.9615 -0.2606 -3.0360 8.1612 -3.1411 -3.0303 4.2393 13.9138 -0.4046 1.9747 24.6721 0.0607 0.5844 0.0000 0.0000 -0.0000 24.1336 -0.1125 3.2318 24.6526 0.5376 2.9944 -0.0000 0.0000 0.0000 32.2455 0.0360 3.3671 31.0117 1.8287 6.0786 -0.0000 0.0000 0.0000 33.0303 -1.0910 0.6399 45.0276 6.5054 12.6682 0.0000 0.0000 -0.0000 -15.2456 10.1593 2.8938 13.3525 -0.0183 -0.3466 -4.6623 7.4311 -0.0622 -0.0976 -0.0264 0.0628 -12.5170 -0.0990 1.3491 9.1622 0.0152 0.2292 -2.8541 4.2086 -0.6960 -0.0122 -0.1097 0.2621 
